<svg xmlns="http://www.w3.org/2000/svg" viewBox="0 0 512 512">
  <defs>
    <linearGradient id="bg" x1="0" y1="0" x2="1" y2="1">
      <stop offset="0%" stop-color="#ff4f8b"/>
      <stop offset="52%" stop-color="#7a7cff"/>
      <stop offset="100%" stop-color="#45d1ff"/>
    </linearGradient>
    <linearGradient id="fg" x1="0" y1="0" x2="1" y2="1">
      <stop offset="0%" stop-color="#ffffff" stop-opacity="0.96"/>
      <stop offset="100%" stop-color="#ffe7ef" stop-opacity="0.96"/>
    </linearGradient>
  </defs>
  <rect width="512" height="512" rx="112" fill="#06070b"/>
  <circle cx="256" cy="214" r="154" fill="url(#bg)" opacity="0.28"/>
  <path d="M170 174c0-42 34-76 76-76 26 0 49 13 63 34 14-21 37-34 63-34 42 0 76 34 76 76 0 75-72 118-139 170a18 18 0 0 1-22 0C242 292 170 249 170 174Z" fill="url(#fg)"/>
  <path d="M148 384l90-140h45l-35 56h18c48 0 79 24 79 60 0 35-30 56-83 56h-114Zm92-44h17c26 0 40-9 40-25 0-17-14-25-39-25h-17l-1 50Z" fill="#06070b"/>
</svg>
